<svg xmlns="http://www.w3.org/2000/svg" x="0px" y="0px"
width="500" height="500"
viewBox="0 0 172 172"
style=" fill:#000000;"><g fill="none" fill-rule="nonzero" stroke="none" stroke-width="1" stroke-linecap="butt" stroke-linejoin="miter" stroke-miterlimit="10" stroke-dasharray="" stroke-dashoffset="0" font-family="none" font-weight="none" font-size="none" text-anchor="none" style="mix-blend-mode: normal"><path d="M0,172v-172h172v172z" fill="none"></path><g fill="#000000"><g id="surface1"><path d="M63.425,14.7275c-1.41094,0 -2.71437,0.94063 -3.225,2.2575l-51.7075,132.655c-0.41656,1.06156 -0.215,2.17688 0.43,3.1175c0.645,0.94063 1.66625,1.505 2.795,1.505h18.06c1.43781,0 2.72781,-0.91375 3.225,-2.2575l13.975,-37.625h51.2775l13.76,37.625c0.49719,1.35719 1.77375,2.2575 3.225,2.2575h19.565c1.89469,0 3.44,-1.53187 3.44,-3.44c0,-0.67187 -0.20156,-1.29 -0.5375,-1.8275l-51.6,-132.01c-0.51062,-1.31687 -1.81406,-2.2575 -3.225,-2.2575zM72.7775,43.86l17.5225,48.6975h-35.1525zM144.48,65.36c-1.90812,0 -3.44,1.54531 -3.44,3.44v13.76h-13.76c-1.90812,0 -3.44,1.54531 -3.44,3.44c0,1.89469 1.53188,3.44 3.44,3.44h13.76v13.76c0,1.90813 1.53188,3.44 3.44,3.44c1.90813,0 3.44,-1.53187 3.44,-3.44v-13.76h13.76c1.90813,0 3.44,-1.54531 3.44,-3.44c0,-1.89469 -1.53187,-3.44 -3.44,-3.44h-13.76v-13.76c0,-1.89469 -1.53187,-3.44 -3.44,-3.44z"></path></g></g></g></svg>