<svg xmlns="http://www.w3.org/2000/svg" x="0px" y="0px"
width="500" height="500"
viewBox="0 0 172 172"
style=" fill:#000000;"><g fill="none" fill-rule="nonzero" stroke="none" stroke-width="1" stroke-linecap="butt" stroke-linejoin="miter" stroke-miterlimit="10" stroke-dasharray="" stroke-dashoffset="0" font-family="none" font-weight="none" font-size="none" text-anchor="none" style="mix-blend-mode: normal"><path d="M0,172v-172h172v172z" fill="none"></path><g fill="#000000"><g id="surface1"><path d="M123.625,0c-0.65844,0.01344 -1.29,0.14781 -1.935,0.3225c-2.55312,0.71219 -4.85094,2.40531 -6.665,4.73c-0.04031,0.04031 -0.06719,0.06719 -0.1075,0.1075l-28.7025,40.205c-17.64344,-4.085 -36.89937,0.56438 -50.6325,14.2975c-1.33031,1.34375 -1.33031,3.49375 0,4.8375l25.585,25.4775l-60.415,76.4325c-1.10188,1.37063 -0.99437,3.34594 0.24188,4.59563c1.24969,1.23625 3.225,1.34375 4.59562,0.24187l76.325,-60.415l25.585,25.4775c1.34375,1.33031 3.49375,1.33031 4.8375,0c13.93469,-13.92125 18.49,-33.54 14.0825,-51.385l40.3125,-27.4125c0.04031,-0.04031 0.06719,-0.06719 0.1075,-0.1075c2.35156,-1.74687 3.9775,-3.91031 4.73,-6.45c0.7525,-2.53969 0.37625,-5.75125 -1.72,-7.8475l-40.42,-40.9575c-1.03469,-1.06156 -2.40531,-1.65281 -3.7625,-1.935c-0.68531,-0.14781 -1.38406,-0.22844 -2.0425,-0.215zM124.27,6.88c0.12094,0.01344 0.13438,0.02688 0.215,0.1075l40.5275,40.9575c0.14781,0.14781 0.22844,0.18813 0,0.9675c-0.22844,0.7525 -1.02125,1.935 -2.2575,2.9025l-0.1075,0.1075l-41.8175,28.4875c-0.04031,0.04031 -0.06719,0.06719 -0.1075,0.1075l-0.215,0.1075c-1.14219,0.88688 -1.6125,2.37844 -1.1825,3.7625c4.50156,15.09031 1.06156,31.72594 -9.7825,44.29l-66.3275,-66.22c12.40281,-10.69625 28.82344,-14.23031 43.7525,-9.9975c1.42438,0.38969 2.94281,-0.17469 3.7625,-1.3975l29.67,-41.8175l0.1075,-0.1075c0.99438,-1.22281 2.24406,-1.935 3.01,-2.15c0.40313,-0.1075 0.63156,-0.12094 0.7525,-0.1075zM66.005,94.9225l11.0725,10.965l-52.5675,41.6025z"></path></g></g></g></svg>