<svg xmlns="http://www.w3.org/2000/svg" x="0px" y="0px"
width="500" height="500"
viewBox="0 0 172 172"
style=" fill:#000000;"><g fill="none" fill-rule="nonzero" stroke="none" stroke-width="1" stroke-linecap="butt" stroke-linejoin="miter" stroke-miterlimit="10" stroke-dasharray="" stroke-dashoffset="0" font-family="none" font-weight="none" font-size="none" text-anchor="none" style="mix-blend-mode: normal"><path d="M0,172v-172h172v172z" fill="none"></path><g fill="#000000"><g id="surface1"><path d="M140.87875,89.17125c-3.225,-4.70312 -7.64594,-8.41187 -13.19562,-11.0725c3.42656,-2.41875 6.22156,-5.21375 8.37156,-8.35812c3.41313,-5.01219 5.14656,-11.2875 5.14656,-18.65125c0,-6.69188 -1.15562,-12.44313 -3.41312,-17.10594c-2.29781,-4.74344 -5.59,-8.6 -9.7825,-11.46219c-4.07156,-2.78156 -8.97625,-4.81062 -14.60656,-6.00656c-5.41531,-1.15562 -11.47563,-1.74687 -17.99281,-1.74687h-62.41719c-1.89469,0 -3.44,1.53187 -3.44,3.44v132.62812c0,1.89469 1.54531,3.44 3.44,3.44h64.27156c6.22156,0 12.3625,-0.79281 18.24812,-2.35156c6.00656,-1.58563 11.43531,-4.07156 16.15188,-7.37719c4.82406,-3.39969 8.7075,-7.83406 11.55625,-13.18219c2.84875,-5.36156 4.3,-11.75781 4.3,-18.97375c0,-8.96281 -2.24406,-16.77 -6.63813,-23.22zM62.14844,40.86344h27.31844c2.59344,0 5.10625,0.215 7.525,0.645c2.40531,0.44344 4.54187,1.22281 6.40969,2.32469c1.85437,1.11531 3.3325,2.67406 4.44781,4.64937c1.11531,1.98875 1.67969,4.52844 1.67969,7.61906c0,5.57656 -1.67969,9.59437 -5.02563,12.06687c-3.34594,2.48594 -7.61906,3.72219 -12.81937,3.72219h-29.53563zM113.14375,119.25781c-1.16906,2.23062 -2.75469,3.99094 -4.73,5.29437c-1.98875,1.30344 -4.27312,2.23063 -6.88,2.795c-2.59344,0.55094 -5.32125,0.83313 -8.17,0.83313h-31.21531v-36.41563h31.76625c6.32906,0 11.395,1.46469 15.23813,4.36719c3.84312,2.91594 5.76469,7.78031 5.76469,14.59312c-0.01344,3.45344 -0.60469,6.30219 -1.77375,8.53281z"></path></g></g></g></svg>