<svg xmlns="http://www.w3.org/2000/svg" x="0px" y="0px"
width="500" height="500"
viewBox="0 0 172 172"
style=" fill:#000000;"><g fill="none" fill-rule="nonzero" stroke="none" stroke-width="1" stroke-linecap="butt" stroke-linejoin="miter" stroke-miterlimit="10" stroke-dasharray="" stroke-dashoffset="0" font-family="none" font-weight="none" font-size="none" text-anchor="none" style="mix-blend-mode: normal"><path d="M0,172v-172h172v172z" fill="none"></path><g fill="#000000"><path d="M165.12,86c0,-11.5068 -6.53944,-21.5516 -16.08544,-26.6256c2.60752,-9.93472 0.06536,-20.97712 -7.68496,-28.72744c-5.78952,-5.78952 -13.416,-8.67224 -21.04936,-8.67224c-2.58344,0 -5.16688,0.33024 -7.67808,0.99072c-5.07056,-9.546 -15.11536,-16.08544 -26.62216,-16.08544c-11.5068,0 -21.5516,6.53944 -26.6256,16.08544c-2.51464,-0.66048 -5.09464,-0.99072 -7.67808,-0.99072c-7.63336,0 -15.25984,2.88272 -21.04936,8.67224c-7.75032,7.75032 -10.29248,18.78928 -7.68496,28.72744c-9.54256,5.074 -16.082,15.1188 -16.082,26.6256c0,11.5068 6.53944,21.5516 16.08544,26.6256c-2.60752,9.93472 -0.06536,20.97712 7.68496,28.72744c5.78952,5.78952 13.416,8.67224 21.04936,8.67224c2.58344,0 5.16688,-0.33024 7.67808,-0.99072c5.07056,9.546 15.11536,16.08544 26.62216,16.08544c11.5068,0 21.5516,-6.53944 26.6256,-16.08544c2.51464,0.66048 5.09464,0.99072 7.67808,0.99072c7.63336,0 15.25984,-2.88272 21.04936,-8.67224c7.75032,-7.75032 10.29248,-18.78928 7.68496,-28.72744c9.54256,-5.074 16.082,-15.1188 16.082,-26.6256zM74.69616,113.4684l-25.03632,-25.03632l4.86416,-4.86416l20.17216,20.17216l42.77984,-42.7764l4.86416,4.86416z"></path></g></g></svg>