<svg xmlns="http://www.w3.org/2000/svg" x="0px" y="0px"
width="500" height="500"
viewBox="0 0 172 172"
style=" fill:#000000;"><g fill="none" fill-rule="nonzero" stroke="none" stroke-width="1" stroke-linecap="butt" stroke-linejoin="miter" stroke-miterlimit="10" stroke-dasharray="" stroke-dashoffset="0" font-family="none" font-weight="none" font-size="none" text-anchor="none" style="mix-blend-mode: normal"><path d="M0,172v-172h172v172z" fill="none"></path><g fill="#000000"><path d="M86,6.88c-11.5068,0 -21.5524,6.53869 -26.6264,16.08469c-2.51464,-0.66048 -5.09609,-0.98766 -7.67953,-0.98766c-7.63336,0 -15.26033,2.87767 -21.04984,8.66719c-7.75032,7.75032 -10.28705,18.79122 -7.67953,28.72938c-9.54256,5.074 -16.08469,15.1196 -16.08469,26.6264c0,11.5068 6.53869,21.5524 16.08469,26.6264c-2.60752,9.93472 -0.06407,20.97906 7.68625,28.72938c5.78952,5.78952 13.41648,8.66719 21.04984,8.66719c2.58344,0 5.16833,-0.32717 7.67953,-0.98765c5.07056,9.546 15.11289,16.08469 26.61969,16.08469c11.5068,0 21.5524,-6.53869 26.6264,-16.08469c2.51464,0.66048 5.09609,0.98765 7.67953,0.98765c7.63336,0 15.26033,-2.87767 21.04985,-8.66719c7.75032,-7.75032 10.28705,-18.79122 7.67953,-28.72938c9.54256,-5.074 16.08469,-15.1196 16.08469,-26.6264c0,-11.5068 -6.53869,-21.5524 -16.08469,-26.6264c2.60752,-9.93472 0.06407,-20.97906 -7.68625,-28.72938c-5.78952,-5.78952 -13.41649,-8.66719 -21.04985,-8.66719c-2.58344,0 -5.16833,0.32718 -7.67953,0.98766c-5.07056,-9.546 -15.11289,-16.08469 -26.61969,-16.08469zM86,14.41172c8.35232,0 16.01197,4.62911 19.97485,12.08703l2.795,5.2675l5.7714,-1.51172c1.8748,-0.49192 3.81421,-0.74578 5.76469,-0.74578c5.9684,0 11.5526,2.2976 15.72188,6.46344c5.55216,5.55216 7.74709,13.7844 5.72437,21.48656l-1.51172,5.7714l5.26078,2.795c7.45448,3.96288 12.08703,11.62253 12.08703,19.97485c0,8.35232 -4.62911,16.01197 -12.08703,19.97485l-5.26078,2.795l1.51172,5.7714c2.01928,7.70216 -0.17221,15.9344 -5.72437,21.48656c-4.16928,4.16928 -9.75692,6.46344 -15.72188,6.46344c-1.94704,0 -3.88645,-0.25042 -5.76469,-0.74578l-5.7714,-1.51172l-2.795,5.2675c-3.96288,7.45448 -11.62253,12.08703 -19.97485,12.08703c-8.35232,0 -16.01197,-4.62911 -19.97485,-12.08703l-2.795,-5.2675l-5.7714,1.51172c-1.8748,0.49192 -3.81421,0.74578 -5.76469,0.74578c-5.9684,0 -11.5526,-2.2976 -15.72188,-6.46344c-5.55216,-5.55216 -7.74709,-13.7844 -5.72437,-21.48656l1.51172,-5.7714l-5.26078,-2.795c-7.45104,-3.96288 -12.08703,-11.62253 -12.08703,-19.97485c0,-8.35232 4.62911,-16.01197 12.08703,-19.97485l5.2675,-2.795l-1.51172,-5.7714c-2.01928,-7.70216 0.1655,-15.9344 5.71766,-21.48656c4.16928,-4.16928 9.75692,-6.46344 15.72188,-6.46344c1.94704,0 3.88645,0.25042 5.76469,0.74578l5.7714,1.51172l2.80172,-5.2675c3.95944,-7.45448 11.61581,-12.08703 19.96813,-12.08703zM117.47735,60.96594l-42.77828,42.77156l-20.17641,-20.16969l-4.86437,4.86437l25.04078,25.03406l47.64265,-47.63594z"></path></g></g></svg>