<svg xmlns="http://www.w3.org/2000/svg" x="0px" y="0px"
width="500" height="500"
viewBox="0 0 172 172"
style=" fill:#000000;"><g fill="none" fill-rule="nonzero" stroke="none" stroke-width="1" stroke-linecap="butt" stroke-linejoin="miter" stroke-miterlimit="10" stroke-dasharray="" stroke-dashoffset="0" font-family="none" font-weight="none" font-size="none" text-anchor="none" style="mix-blend-mode: normal"><path d="M0,172v-172h172v172z" fill="none"></path><g fill="#000000"><g id="surface1"><path d="M147.49,29.67c-0.1075,0.02688 -0.215,0.06719 -0.3225,0.1075c-0.90031,0.22844 -1.67969,0.80625 -2.15,1.6125l-70.305,109.005l-48.375,-43.645c-0.84656,-1.075 -2.2575,-1.54531 -3.58781,-1.19594c-1.33031,0.34937 -2.31125,1.46469 -2.51281,2.82187c-0.20156,1.35719 0.41656,2.70094 1.58562,3.42656l51.2775,46.44c0.7525,0.65844 1.76031,0.95406 2.75469,0.80625c0.99438,-0.14781 1.86781,-0.71219 2.40531,-1.55875l72.5625,-112.445c0.79281,-1.12875 0.83313,-2.62031 0.1075,-3.78937c-0.72562,-1.16906 -2.08281,-1.78719 -3.44,-1.58563z"></path></g></g></g></svg>