<svg xmlns="http://www.w3.org/2000/svg" x="0px" y="0px"
width="500" height="500"
viewBox="0 0 172 172"
style=" fill:#000000;"><g fill="none" fill-rule="nonzero" stroke="none" stroke-width="1" stroke-linecap="butt" stroke-linejoin="miter" stroke-miterlimit="10" stroke-dasharray="" stroke-dashoffset="0" font-family="none" font-weight="none" font-size="none" text-anchor="none" style="mix-blend-mode: normal"><path d="M0,172v-172h172v172z" fill="none"></path><g fill="#000000"><path d="M86,10.32c-41.7272,0 -75.68,33.9528 -75.68,75.68c0,41.7272 33.9528,75.68 75.68,75.68c41.7272,0 75.68,-33.9528 75.68,-75.68c0,-41.7272 -33.9528,-75.68 -75.68,-75.68zM123.2552,56.9664l-39.5944,58.3768l-30.96,-28.724c-1.376,-1.3072 -1.4792,-3.4744 -0.172,-4.8848c1.2728,-1.376 3.4744,-1.4448 4.8504,-0.172l25.0776,23.2544l35.088,-51.7032c1.0664,-1.5824 3.2336,-1.9952 4.7816,-0.9288c1.5824,1.0664 1.9952,3.1992 0.9288,4.7816z"></path></g></g></svg>