<svg xmlns="http://www.w3.org/2000/svg" x="0px" y="0px"
width="500" height="500"
viewBox="0 0 172 172"
style=" fill:#000000;"><g fill="none" fill-rule="nonzero" stroke="none" stroke-width="1" stroke-linecap="butt" stroke-linejoin="miter" stroke-miterlimit="10" stroke-dasharray="" stroke-dashoffset="0" font-family="none" font-weight="none" font-size="none" text-anchor="none" style="mix-blend-mode: normal"><path d="M0,172v-172h172v172z" fill="none"></path><g fill="#000000"><path d="M86,10.32c-41.75616,0 -75.68,33.92384 -75.68,75.68c0,41.75616 33.92384,75.68 75.68,75.68c41.75616,0 75.68,-33.92384 75.68,-75.68c0,-41.75616 -33.92384,-75.68 -75.68,-75.68zM86,17.2c38.03794,0 68.8,30.76206 68.8,68.8c0,38.03794 -30.76206,68.8 -68.8,68.8c-38.03794,0 -68.8,-30.76206 -68.8,-68.8c0,-38.03794 30.76206,-68.8 68.8,-68.8zM120.35969,51.55969c-1.13486,0.02237 -2.18564,0.60307 -2.80844,1.55203l-35.09203,51.72765l-25.08109,-23.27375c-0.89676,-0.8629 -2.18961,-1.17423 -3.38088,-0.81414c-1.19126,0.36009 -2.09519,1.33544 -2.36381,2.5506c-0.26862,1.21516 0.13995,2.48065 1.06843,3.30932l30.94656,28.71594l39.60031,-58.35906c0.74064,-1.06125 0.82307,-2.44836 0.21333,-3.58986c-0.60974,-1.1415 -1.8085,-1.84425 -3.10239,-1.81873z"></path></g></g></svg>