<svg xmlns="http://www.w3.org/2000/svg" x="0px" y="0px"
width="500" height="500"
viewBox="0 0 172 172"
style=" fill:#000000;"><g fill="none" fill-rule="nonzero" stroke="none" stroke-width="1" stroke-linecap="butt" stroke-linejoin="miter" stroke-miterlimit="10" stroke-dasharray="" stroke-dashoffset="0" font-family="none" font-weight="none" font-size="none" text-anchor="none" style="mix-blend-mode: normal"><path d="M0,172v-172h172v172z" fill="none"></path><g fill="#000000"><g id="surface1"><path d="M61.3825,34.4c-1.41094,0 -2.71437,0.94063 -3.225,2.2575l-43.9675,112.9825c-0.41656,1.06156 -0.3225,2.17688 0.3225,3.1175c0.645,0.94063 1.77375,1.505 2.9025,1.505h15.265c1.43781,0 2.72781,-0.91375 3.225,-2.2575l11.825,-31.7125h43l11.5025,31.7125c0.49719,1.35719 1.88125,2.2575 3.3325,2.2575h16.6625c1.90813,0 3.44,-1.53187 3.44,-3.44c0,-0.67187 -0.20156,-1.29 -0.5375,-1.8275l-43.9675,-112.3375c-0.51062,-1.31687 -1.81406,-2.2575 -3.225,-2.2575zM69.445,61.1675l14.0825,39.56h-28.4875zM127.28,82.56c-1.90812,0 -3.44,1.54531 -3.44,3.44c0,1.89469 1.53188,3.44 3.44,3.44h34.4c1.90813,0 3.44,-1.54531 3.44,-3.44c0,-1.89469 -1.53187,-3.44 -3.44,-3.44z"></path></g></g></g></svg>