<svg xmlns="http://www.w3.org/2000/svg" x="0px" y="0px"
width="500" height="500"
viewBox="0 0 172 172"
style=" fill:#000000;"><g fill="none" fill-rule="nonzero" stroke="none" stroke-width="1" stroke-linecap="butt" stroke-linejoin="miter" stroke-miterlimit="10" stroke-dasharray="" stroke-dashoffset="0" font-family="none" font-weight="none" font-size="none" text-anchor="none" style="mix-blend-mode: normal"><path d="M0,172v-172h172v172z" fill="none"></path><g id="original-icon" fill="#000000"><g id="surface1"><path d="M54.7175,20.5325c-0.14781,0.02688 -0.29562,0.06719 -0.43,0.1075c-1.59906,0.36281 -2.72781,1.80063 -2.6875,3.44v3.44h-3.44c-0.1075,0 -0.215,0 -0.3225,0c-1.89469,0.09406 -3.37281,1.70656 -3.27875,3.60125c0.09406,1.89469 1.70656,3.37281 3.60125,3.27875h3.44v3.44c-0.01344,1.23625 0.63156,2.39188 1.70656,3.02344c1.075,0.61813 2.39187,0.61813 3.46687,0c1.075,-0.63156 1.72,-1.78719 1.70656,-3.02344v-3.44h3.44c1.23625,0.01344 2.39188,-0.63156 3.02344,-1.70656c0.61813,-1.075 0.61813,-2.39187 0,-3.46687c-0.63156,-1.075 -1.78719,-1.72 -3.02344,-1.70656h-3.44v-3.44c0.04031,-0.99437 -0.36281,-1.94844 -1.075,-2.62031c-0.72562,-0.68531 -1.70656,-1.02125 -2.6875,-0.92719zM97.395,44.6125l-4.515,0.645c-23.3275,3.3325 -41.28,23.39469 -41.28,47.6225c0,26.5525 21.6075,48.16 48.16,48.16c24.22781,0 44.27656,-17.9525 47.6225,-41.28l0.645,-4.515l-4.515,0.645c-2.00219,0.28219 -3.96406,0.43 -5.9125,0.43c-22.84375,0 -41.28,-18.43625 -41.28,-41.28c0,-1.94844 0.14781,-3.91031 0.43,-5.9125zM89.5475,53.4275c-0.02687,0.55094 -0.1075,1.04813 -0.1075,1.6125c0,26.5525 21.6075,48.16 48.16,48.16c0.56438,0 1.06156,-0.08062 1.6125,-0.1075c-4.60906,17.76438 -20.22344,31.0675 -39.4525,31.0675c-22.84375,0 -41.28,-18.43625 -41.28,-41.28c0,-19.22906 13.30313,-34.85687 31.0675,-39.4525zM27.1975,61.8125c-0.14781,0.02688 -0.29562,0.06719 -0.43,0.1075c-1.59906,0.36281 -2.72781,1.80063 -2.6875,3.44c-0.1075,0 -0.215,0 -0.3225,0c-1.89469,0.09406 -3.37281,1.70656 -3.27875,3.60125c0.09406,1.89469 1.70656,3.37281 3.60125,3.27875c-0.01344,1.23625 0.63156,2.39188 1.70656,3.02344c1.075,0.61813 2.39187,0.61813 3.46687,0c1.075,-0.63156 1.72,-1.78719 1.70656,-3.02344c1.23625,0.01344 2.39188,-0.63156 3.02344,-1.70656c0.61813,-1.075 0.61813,-2.39187 0,-3.46687c-0.63156,-1.075 -1.78719,-1.72 -3.02344,-1.70656c0.04031,-0.99437 -0.36281,-1.94844 -1.075,-2.62031c-0.72562,-0.68531 -1.70656,-1.02125 -2.6875,-0.92719z"></path></g></g></g></svg>