<svg xmlns="http://www.w3.org/2000/svg" x="0px" y="0px"
width="500" height="500"
viewBox="0 0 172 172"
style=" fill:#000000;"><g fill="none" fill-rule="nonzero" stroke="none" stroke-width="1" stroke-linecap="butt" stroke-linejoin="miter" stroke-miterlimit="10" stroke-dasharray="" stroke-dashoffset="0" font-family="none" font-weight="none" font-size="none" text-anchor="none" style="mix-blend-mode: normal"><path d="M0,172v-172h172v172z" fill="none"></path><g fill="#000000"><g id="surface1"><path d="M55.04,20.64c-1.89469,0 -3.44,1.54531 -3.44,3.44v3.44h-3.44c-1.89469,0 -3.44,1.54531 -3.44,3.44c0,1.89469 1.54531,3.44 3.44,3.44h3.44v3.44c0,1.89469 1.54531,3.44 3.44,3.44c1.89469,0 3.44,-1.54531 3.44,-3.44v-3.44h3.44c1.89469,0 3.44,-1.54531 3.44,-3.44c0,-1.89469 -1.54531,-3.44 -3.44,-3.44h-3.44v-3.44c0,-1.89469 -1.54531,-3.44 -3.44,-3.44zM97.395,44.6125l-4.515,0.645c-23.5425,3.37281 -41.28,23.83813 -41.28,47.6225c0,26.5525 21.6075,48.16 48.16,48.16c23.77094,0 44.24969,-17.7375 47.6225,-41.28l0.645,-4.515l-4.515,0.645c-2.27094,0.3225 -4.15219,0.43 -5.9125,0.43c-22.76312,0 -41.28,-18.51687 -41.28,-41.28c0,-1.76031 0.1075,-3.655 0.43,-5.9125zM27.52,61.92c-1.89469,0 -3.44,1.54531 -3.44,3.44c-1.89469,0 -3.44,1.54531 -3.44,3.44c0,1.89469 1.54531,3.44 3.44,3.44c0,1.89469 1.54531,3.44 3.44,3.44c1.89469,0 3.44,-1.54531 3.44,-3.44c1.89469,0 3.44,-1.54531 3.44,-3.44c0,-1.89469 -1.54531,-3.44 -3.44,-3.44c0,-1.89469 -1.54531,-3.44 -3.44,-3.44z"></path></g></g></g></svg>