<svg xmlns="http://www.w3.org/2000/svg" x="0px" y="0px"
width="500" height="500"
viewBox="0 0 172 172"
style=" fill:#000000;"><g fill="none" fill-rule="nonzero" stroke="none" stroke-width="1" stroke-linecap="butt" stroke-linejoin="miter" stroke-miterlimit="10" stroke-dasharray="" stroke-dashoffset="0" font-family="none" font-weight="none" font-size="none" text-anchor="none" style="mix-blend-mode: normal"><path d="M0,172v-172h172v172z" fill="none"></path><g fill="#000000"><g id="surface1"><path d="M124.055,0c-3.225,0 -6.61125,1.89469 -9.1375,5.16l-28.4875,39.99c-4.09844,-0.9675 -8.25062,-1.3975 -12.47,-1.3975c-14.48562,0 -28.13812,5.67063 -38.3775,15.91c-0.645,0.645 -0.9675,1.45125 -0.9675,2.365c0,0.91375 0.3225,1.8275 0.9675,2.4725l71.9175,71.9175c0.67188,0.67188 1.47813,0.9675 2.365,0.9675c0.88688,0 1.80063,-0.40312 2.4725,-1.075c13.53156,-13.51812 18.90656,-33.02937 14.2975,-51.4925l40.205,-27.4125c3.01,-2.24406 4.93156,-5.32125 5.16,-8.385c0.17469,-2.24406 -0.645,-4.39406 -2.15,-5.9125l-40.42,-40.9575c-1.38406,-1.41094 -3.31906,-2.15 -5.375,-2.15zM56.8675,95.46l-56.115,70.95c-1.08844,1.37063 -1.02125,3.38625 0.215,4.6225c0.67188,0.67188 1.58563,0.9675 2.4725,0.9675c0.7525,0 1.51844,-0.25531 2.15,-0.7525l70.8425,-56.115z"></path></g></g></g></svg>