<svg xmlns="http://www.w3.org/2000/svg" x="0px" y="0px"
width="500" height="500"
viewBox="0 0 172 172"
style=" fill:#000000;"><g fill="none" fill-rule="nonzero" stroke="none" stroke-width="1" stroke-linecap="butt" stroke-linejoin="miter" stroke-miterlimit="10" stroke-dasharray="" stroke-dashoffset="0" font-family="none" font-weight="none" font-size="none" text-anchor="none" style="mix-blend-mode: normal"><path d="M0,172v-172h172v172z" fill="none"></path><g fill="#000000"><path d="M86,6.88c-43.6583,0 -79.12,35.4617 -79.12,79.12c0,43.6583 35.4617,79.12 79.12,79.12c43.6583,0 79.12,-35.4617 79.12,-79.12c0,-43.47198 -35.17396,-78.76536 -78.57578,-79.06625c-0.17969,-0.03233 -0.36167,-0.0503 -0.54422,-0.05375zM86,13.76c39.94058,0 72.24,32.29942 72.24,72.24c0,39.94058 -32.29942,72.24 -72.24,72.24c-39.94058,0 -72.24,-32.29942 -72.24,-72.24c0,-39.94058 32.29942,-72.24 72.24,-72.24zM58.48,61.92c-5.69958,0 -10.32,4.62042 -10.32,10.32c0,5.69958 4.62042,10.32 10.32,10.32c5.69958,0 10.32,-4.62042 10.32,-10.32c0,-5.69958 -4.62042,-10.32 -10.32,-10.32zM113.52,61.92c-5.69958,0 -10.32,4.62042 -10.32,10.32c0,5.69958 4.62042,10.32 10.32,10.32c5.69958,0 10.32,-4.62042 10.32,-10.32c0,-5.69958 -4.62042,-10.32 -10.32,-10.32zM86,99.76c-22.16889,0 -36.83219,14.76781 -36.83219,14.76781c-0.89867,0.86281 -1.26068,2.14404 -0.94641,3.34956c0.31427,1.20552 1.2557,2.14696 2.46122,2.46122c1.20552,0.31427 2.48675,-0.04774 3.34956,-0.94641c0,0 12.8567,-12.75219 31.96781,-12.75219c19.11111,0 31.96781,12.75219 31.96781,12.75219c0.86281,0.89867 2.14404,1.26068 3.34956,0.94641c1.20552,-0.31427 2.14696,-1.2557 2.46122,-2.46122c0.31427,-1.20552 -0.04774,-2.48675 -0.94641,-3.34956c0,0 -14.6633,-14.76781 -36.83219,-14.76781z"></path></g></g></svg>