<svg xmlns="http://www.w3.org/2000/svg" x="0px" y="0px"
width="500" height="500"
viewBox="0 0 172 172"
style=" fill:#000000;"><g fill="none" fill-rule="nonzero" stroke="none" stroke-width="1" stroke-linecap="butt" stroke-linejoin="miter" stroke-miterlimit="10" stroke-dasharray="" stroke-dashoffset="0" font-family="none" font-weight="none" font-size="none" text-anchor="none" style="mix-blend-mode: normal"><path d="M0,172v-172h172v172z" fill="none"></path><g fill="#000000"><path d="M86,17.2c-37.92928,0 -68.8,30.87072 -68.8,68.8c0,37.92928 30.87072,68.8 68.8,68.8c37.92928,0 68.8,-30.87072 68.8,-68.8c0,-37.92928 -30.87072,-68.8 -68.8,-68.8zM86,28.66667c31.73223,0 57.33333,25.6011 57.33333,57.33333c0,31.73223 -25.6011,57.33333 -57.33333,57.33333c-31.73223,0 -57.33333,-25.6011 -57.33333,-57.33333c0,-31.73223 25.6011,-57.33333 57.33333,-57.33333zM60.2,74.53333c-4.74965,0 -8.6,3.85035 -8.6,8.6c0,4.74965 3.85035,8.6 8.6,8.6c4.74965,0 8.6,-3.85035 8.6,-8.6c0,-4.74965 -3.85035,-8.6 -8.6,-8.6zM111.8,74.53333c-4.74965,0 -8.6,3.85035 -8.6,8.6c0,4.74965 3.85035,8.6 8.6,8.6c4.74965,0 8.6,-3.85035 8.6,-8.6c0,-4.74965 -3.85035,-8.6 -8.6,-8.6zM86,103.2c-8.69556,0 -15.60354,3.47651 -20.21224,6.83073c-2.55921,1.865 -3.12252,5.45127 -1.25832,8.01106c1.8642,2.55979 5.45029,3.12422 8.01067,1.26082c3.2689,-2.37912 7.82212,-4.63594 13.45989,-4.63594c5.63778,0 10.19099,2.25682 13.45989,4.63594c1.65623,1.20696 3.83063,1.43843 5.70383,0.60718c1.8732,-0.83125 3.16049,-2.59887 3.37678,-4.63677c0.21629,-2.03791 -0.67128,-4.03636 -2.32826,-5.24228c-4.6087,-3.35422 -11.51668,-6.83073 -20.21224,-6.83073z"></path></g></g></svg>