<svg xmlns="http://www.w3.org/2000/svg" x="0px" y="0px"
width="500" height="500"
viewBox="0 0 172 172"
style=" fill:#000000;"><g fill="none" fill-rule="nonzero" stroke="none" stroke-width="1" stroke-linecap="butt" stroke-linejoin="miter" stroke-miterlimit="10" stroke-dasharray="" stroke-dashoffset="0" font-family="none" font-weight="none" font-size="none" text-anchor="none" style="mix-blend-mode: normal"><path d="M0,172v-172h172v172z" fill="none"></path><g fill="#000000"><g id="surface1"><path d="M124.1625,0c-3.09062,0 -6.49031,1.72 -9.245,5.16l-28.595,39.8825c-4.12531,-1.03469 -8.23719,-1.3975 -12.3625,-1.3975c-7.44437,0 -14.53937,1.62594 -21.07,4.4075h-0.1075l-40.7425,-40.85c-0.71219,-0.76594 -1.74687,-1.15562 -2.795,-1.075c-1.34375,0.13438 -2.48594,1.03469 -2.91594,2.29781c-0.44344,1.27656 -0.09406,2.6875 0.87344,3.61469l152.7575,152.7575c0.83313,1.02125 2.16344,1.49156 3.45344,1.19594c1.27656,-0.29562 2.28438,-1.30344 2.58,-2.58c0.29563,-1.29 -0.17469,-2.62031 -1.19594,-3.45344l-40.85,-40.85c4.50156,-10.65594 5.53625,-22.79 2.6875,-34.185l40.205,-27.52c3.09063,-2.40531 4.81063,-5.50937 5.16,-8.6c0,-2.06937 -0.67187,-4.085 -2.0425,-5.805l-40.635,-40.9575c-1.37062,-1.37062 -3.44,-2.0425 -5.16,-2.0425zM40.635,55.04c-1.72,1.37063 -3.44,2.795 -5.16,4.515c-0.68531,0.68531 -1.075,1.33031 -1.075,2.365c0,1.03469 0.38969,1.67969 1.075,2.365l71.81,71.9175c0.68531,0.68531 1.78719,1.075 2.4725,1.075c0.68531,0 1.67969,-0.38969 2.365,-1.075c1.72,-1.72 3.13094,-3.44 4.515,-5.16zM56.76,95.3525l-56.0075,71.0575c-1.075,1.37063 -1.02125,3.38625 0.215,4.6225c0.67188,0.65844 1.58563,0.9675 2.4725,0.9675c0.7525,0 1.51844,-0.25531 2.15,-0.7525l70.8425,-56.2225z"></path></g></g></g></svg>