<svg xmlns="http://www.w3.org/2000/svg" x="0px" y="0px"
width="500" height="500"
viewBox="0 0 172 172"
style=" fill:#000000;"><g fill="none" fill-rule="nonzero" stroke="none" stroke-width="1" stroke-linecap="butt" stroke-linejoin="miter" stroke-miterlimit="10" stroke-dasharray="" stroke-dashoffset="0" font-family="none" font-weight="none" font-size="none" text-anchor="none" style="mix-blend-mode: normal"><path d="M0,172v-172h172v172z" fill="none"></path><g fill="#000000"><g id="surface1"><path d="M124.1625,0c-3.09062,0 -6.49031,1.72 -9.245,5.16l-28.595,39.8825c-4.12531,-1.03469 -8.23719,-1.3975 -12.3625,-1.3975c-7.44437,0 -14.53937,1.62594 -21.07,4.4075h-0.1075l-40.7425,-40.85c-0.71219,-0.76594 -1.74687,-1.15562 -2.795,-1.075c-1.34375,0.13438 -2.48594,1.03469 -2.91594,2.29781c-0.44344,1.27656 -0.09406,2.6875 0.87344,3.61469l152.7575,152.7575c0.83313,1.02125 2.16344,1.49156 3.45344,1.19594c1.27656,-0.29562 2.28438,-1.30344 2.58,-2.58c0.29563,-1.29 -0.17469,-2.62031 -1.19594,-3.45344l-40.85,-40.85c4.50156,-10.65594 5.53625,-22.79 2.6875,-34.185l40.205,-27.52c3.09063,-2.40531 4.81063,-5.50937 5.16,-8.6c0,-2.06937 -0.67187,-4.085 -2.0425,-5.805l-40.635,-40.9575c-1.37062,-1.37062 -3.44,-2.0425 -5.16,-2.0425zM124.1625,6.88h0.3225l40.635,40.9575v0.3225c0,1.03469 -0.645,2.40531 -2.365,3.44l-42.0325,28.595l-0.3225,0.3225c-1.03469,1.03469 -1.76031,2.39188 -1.075,3.7625c3.03688,9.95719 2.60688,20.12938 -0.7525,29.455l-60.3075,-60.3075c4.99875,-1.73344 10.26625,-2.4725 15.695,-2.4725c4.47469,0 8.98969,0.68531 13.115,1.72c1.37063,0.34938 2.72781,-0.02687 3.7625,-1.3975l29.5625,-42.0325c1.37063,-1.72 2.72781,-2.365 3.7625,-2.365zM40.635,55.04c-1.72,1.37063 -3.44,2.795 -5.16,4.515c-0.68531,0.68531 -1.075,1.33031 -1.075,2.365c0,1.03469 0.38969,1.67969 1.075,2.365l25.585,25.6925l-60.3075,76.4325c-1.10188,1.37063 -0.99437,3.34594 0.24188,4.59563c1.24969,1.23625 3.225,1.34375 4.59562,0.24187l76.2175,-60.5225l25.4775,25.4775c0.68531,0.68531 1.78719,1.075 2.4725,1.075c0.68531,0 1.67969,-0.38969 2.365,-1.075c1.72,-1.72 3.14438,-3.44 4.515,-5.16l-4.8375,-4.8375c-0.68531,1.03469 -1.35719,1.76031 -2.0425,2.795l-66.7575,-66.7575c0.68531,-0.68531 1.76031,-1.35719 2.795,-2.0425zM65.8975,94.815l11.0725,11.0725l-52.675,41.71z"></path></g></g></g></svg>